<svg width="662" height="260" viewBox="0 0 662 260" fill="none" xmlns="http://www.w3.org/2000/svg">
<g clip-path="url(#clip0)">
<rect width="662" height="260" rx="50" fill="#1E1E1E"/>
<path d="M150.748 47H142V75.5536V86H174V70.4464C174 57.4464 163.64 47 150.748 47Z" fill="#3ECF8E"/>
<path d="M113.169 34C112.473 34 111.776 34 111.079 34H92.7322C69.0437 34 50 52.8197 50 76.2295V80.8197L54.4126 83.3443C80.1913 97.5738 96.2158 125.803 96.2158 157.016C96.2158 159.082 96.2158 161.148 95.9836 162.984C95.7514 165.049 95.5191 167.344 95.2869 169.639V169.869C95.0547 171.246 94.8224 172.623 94.5901 174C117.117 172.852 135 154.492 135 132V104.459V85.8689V48.459C135 47.082 134.535 34 113.169 34Z" fill="#3ECF8E"/>
<path d="M50 91V173.846V223C59.0188 217.923 66.65 211 72.8937 202.231C79.6 192.538 84.225 181 86.075 168.308C86.075 168.308 86.075 168.308 86.075 168.077C86.3063 166.231 86.5375 164.154 86.7687 162.077C86.7687 160.231 87 158.615 87 156.769C86.7688 128.154 71.7375 103 50 91Z" fill="#3ECF8E"/>
<path d="M262 95H278C279.6 95 280.667 95.3333 281.2 96C281.867 96.5333 282.2 97.5333 282.2 99V112.8C282.2 115.6 280.8 117 278 117H262C260.533 117 259.8 117.733 259.8 119.2V192.8C259.8 195.6 258.333 197 255.4 197H238.6C235.8 197 234.4 195.6 234.4 192.8V119.2C234.4 117.733 233.6 117 232 117H222.8C220 117 218.6 115.6 218.6 112.8V99C218.6 97.4 218.867 96.3333 219.4 95.8C220.067 95.2667 221.2 95 222.8 95H232C233.6 95 234.4 94.2667 234.4 92.8V89C234.4 78.4667 237.133 70.4 242.6 64.8C248.2 59.2 256.267 56.4 266.8 56.4H278.2C279.8 56.4 280.867 56.7333 281.4 57.4C281.933 57.9333 282.2 58.9333 282.2 60.4V74.2C282.2 77 280.867 78.4 278.2 78.4H270.8C266.533 78.4 263.6 79.3333 262 81.2C260.533 82.9333 259.8 85.9333 259.8 90.2V92.8C259.8 94.2667 260.533 95 262 95ZM317.903 197H300.903C298.103 197 296.703 195.6 296.703 192.8V60.6C296.703 57.8 298.103 56.4 300.903 56.4H317.903C320.703 56.4 322.103 57.8 322.103 60.6V192.8C322.103 195.6 320.703 197 317.903 197ZM393.917 197H376.117C365.584 197 357.451 194.2 351.717 188.6C345.984 183 343.117 174.933 343.117 164.4V127.6C343.117 117.067 345.984 109 351.717 103.4C357.451 97.8 365.584 95 376.117 95H393.917C404.317 95 412.384 97.8667 418.117 103.6C423.984 109.2 426.917 117.2 426.917 127.6V164.4C426.917 174.8 423.984 182.867 418.117 188.6C412.384 194.2 404.317 197 393.917 197ZM379.917 175.2H390.117C394.384 175.2 397.384 174.333 399.117 172.6C400.984 170.867 401.917 167.867 401.917 163.6V128.4C401.917 124.133 400.984 121.133 399.117 119.4C397.384 117.667 394.384 116.8 390.117 116.8H379.917C375.651 116.8 372.651 117.667 370.917 119.4C369.184 121.133 368.317 124.133 368.317 128.4V163.6C368.317 167.867 369.184 170.867 370.917 172.6C372.651 174.333 375.651 175.2 379.917 175.2ZM511.875 179.2V193C511.875 194.467 511.542 195.533 510.875 196.2C510.342 196.733 509.275 197 507.675 197H477.875C467.342 197 459.208 194.2 453.475 188.6C447.742 183 444.875 174.933 444.875 164.4V127.6C444.875 117.067 447.742 109 453.475 103.4C459.208 97.8 467.342 95 477.875 95H507.675C510.475 95 511.875 96.4 511.875 99.2V113C511.875 114.467 511.542 115.533 510.875 116.2C510.342 116.733 509.275 117 507.675 117H481.875C477.742 117 474.742 117.933 472.875 119.8C471.142 121.533 470.275 124.533 470.275 128.8V163.2C470.275 167.467 471.142 170.533 472.875 172.4C474.742 174.133 477.742 175 481.875 175H507.675C510.475 175 511.875 176.4 511.875 179.2ZM587.502 95H606.902C608.502 95 609.568 95.4667 610.102 96.4C610.635 97.3333 610.435 98.5333 609.502 100L582.902 143.8V144.6L610.702 192C611.502 193.333 611.568 194.533 610.902 195.6C610.235 196.533 609.035 197 607.302 197H590.102C587.835 197 586.168 196.733 585.102 196.2C584.168 195.667 583.168 194.533 582.102 192.8L556.702 148.2C555.502 146.067 555.502 143.867 556.702 141.6L580.702 99C582.168 96.3333 584.435 95 587.502 95ZM550.302 197H533.302C530.502 197 529.102 195.6 529.102 192.8V60.6C529.102 57.8 530.502 56.4 533.302 56.4H550.302C553.102 56.4 554.502 57.8 554.502 60.6V192.8C554.502 195.6 553.102 197 550.302 197Z" fill="white"/>
</g>
<defs>
<clipPath id="clip0">
<rect width="662" height="260" fill="white"/>
</clipPath>
</defs>
</svg>
