<svg width="260" height="260" viewBox="0 0 260 260" fill="none" xmlns="http://www.w3.org/2000/svg">
<rect width="260" height="260" rx="30" fill="#1E1E1E"/>
<path d="M182.65 44.6143H173.488V74.5168V85.4568H207V69.1684C207 55.5542 196.151 44.6143 182.65 44.6143Z" fill="white"/>
<path d="M140.154 31C139.424 31 138.694 31 137.965 31H118.751C93.9434 31 74 50.7088 74 75.2246V80.0316L78.621 82.6755C105.618 97.5773 122.399 127.14 122.399 159.828C122.399 161.991 122.399 164.155 122.156 166.077C121.913 168.24 121.67 170.644 121.426 173.047V173.288C121.183 174.73 120.94 176.172 120.697 177.614C144.288 176.412 163.016 157.184 163.016 133.63V104.788V85.3193V46.1421C163.016 44.7 162.529 31 140.154 31Z" fill="white"/>
<path d="M74 90.6929V177.453V228.929C83.4448 223.612 91.4366 216.362 97.9753 207.179C104.998 197.028 109.842 184.945 111.779 171.653C111.779 171.653 111.779 171.653 111.779 171.411C112.022 169.478 112.264 167.303 112.506 165.128C112.506 163.194 112.748 161.503 112.748 159.569C112.506 129.602 96.7645 103.26 74 90.6929Z" fill="white"/>
</svg>
